<svg version="1" xmlns="http://www.w3.org/2000/svg" width="644" height="644" viewBox="0 0 483.000000 483.000000"><path d="M142 35.4L42.5 70.7l-.3 106.4-.2 106.4 100 100 100 100 100-100 100-100-.2-106.4-.3-106.4L342 35.4C287.3 16 242.3.1 242 .1c-.3 0-45.3 15.9-100 35.3zm189.5 19.9l88 31.3.3 93.4.2 93.5-89 89-89 89-89-89-89-89 .2-93.5.3-93.4 88-31.3c48.4-17.1 88.7-31.2 89.5-31.2.8 0 41.1 14.1 89.5 31.2z"/><path d="M231 125.8c-4.7 1.5-5.1 4.1-4.1 27.4 1 23.9.7 27.8-1.9 27.8-.9 0-7.8-4-15.2-8.9-23.9-15.7-26.8-17-32.3-14.7-3.9 1.6-9.4 9.2-10.2 14-.4 2.9 0 3.7 3.7 6.9 2.3 1.9 13.8 8.3 25.6 14.1 11.8 5.9 21.4 11.1 21.4 11.7 0 .6-6.2 4-13.7 7.5-30.4 14.3-37.3 18.6-37.3 23.3 0 3.2 3.3 9.2 7.1 12.9 5.8 5.7 8.2 4.8 37.3-13.6 7.1-4.6 13.4-8.1 14-7.9 2 .7 2.4 8.1 1.5 27.5-1.2 26.8-.3 28.7 14.3 28.5 14.3-.1 15-1.8 14.6-33.6-.3-20-.1-22.2 1.3-22.1.9.1 8.3 4.5 16.4 9.8 17.1 11.3 23.4 14.6 27.2 14.6 3.9 0 8.8-3.2 11.6-7.7 6.5-10.1 4.5-12.6-19.2-24-20.2-9.7-27.2-13.2-28.5-14.4-1.6-1.4 1.5-3.2 23.9-14.3 19.5-9.7 27.5-14.9 27.5-18-.1-2.5-3.9-9.3-6.9-12.4-6.5-6.5-9.3-5.6-33.5 10.1-14.8 9.6-19 11.7-20.4 10.2-.4-.4-.5-7.1-.2-14.8.3-7.8.5-18.8.5-24.4 0-9.8-.1-10.4-2.7-13-2.4-2.4-3.5-2.7-11-2.9-4.6-.2-9.4 0-10.8.4z"/></svg>