<?xml version="1.0" encoding="UTF-8"?>
<svg width="400px" height="483px" viewBox="0 0 400 483" version="1.1" xmlns="http://www.w3.org/2000/svg" xmlns:xlink="http://www.w3.org/1999/xlink">
    <!-- Generator: Sketch 49.3 (51167) - http://www.bohemiancoding.com/sketch -->
    <title>Shield (white bkg)</title>
    <desc>Created with Sketch.</desc>
    <defs></defs>
    <g id="Shield-(white-bkg)" stroke="none" stroke-width="1" fill="none" fill-rule="evenodd">
        <polygon id="Shield-bkg" fill="#FFFFFF" fill-rule="nonzero" points="199.999426 0 399.998852 70.8506423 399.998852 283.060491 199.999426 483.269989 0 283.060491 4.62247666e-14 70.8506423"></polygon>
        <path d="M199.999426,0 L399.998852,70.8506423 L399.998852,283.060491 L199.999426,483.269989 L0,283.060491 L4.62247666e-14,70.8506423 L199.999426,0 Z M199.999426,23.6914674 L22.3047687,86.6405511 L22.3047687,273.807058 L199.999426,451.688359 L377.694084,273.807058 L377.694084,86.6405511 L199.999426,23.6914674 Z" id="Shield" fill="#242529" fill-rule="nonzero"></path>
        <path d="M184.101951,271.132827 L185.522637,236.950097 C185.522637,229.670405 184.812301,226.030614 183.391608,226.030614 C181.970915,226.030614 174.867556,230.224287 162.081319,238.611758 C149.295082,246.999229 141.402462,251.192901 138.403221,251.192901 C135.40398,251.192901 132.404784,249.135628 129.405544,245.02102 C126.406303,240.906411 124.906705,237.424872 124.906705,234.576297 C124.906705,230.461688 133.430735,224.606372 150.479051,217.010172 C167.527367,209.413971 176.051397,205.062047 176.051397,203.954268 C176.051397,202.846489 167.527367,198.336312 150.479051,190.423604 C133.430735,182.510895 124.906705,176.655579 124.906705,172.857479 C124.906705,170.008904 126.406303,166.527364 129.405544,162.412756 C132.404784,158.298147 135.640759,156.240874 139.113564,156.240874 C142.586369,156.240874 150.47899,160.434547 162.791662,168.822018 C175.104335,177.209489 181.970915,181.403161 183.391608,181.403161 C184.812301,181.403161 185.522637,178.396377 185.522637,172.382719 L184.101951,134.876668 C184.101951,130.762059 184.891213,128.071779 186.469761,126.805745 C188.048309,125.539712 191.994619,124.906705 198.30881,124.906705 C204.623001,124.906705 208.80609,125.856216 210.858202,127.755266 C212.910314,129.654316 213.936355,134.40187 213.936355,141.99807 L212.042107,172.857479 C212.042107,178.554629 212.831369,181.403161 214.409917,181.403161 C215.988465,181.403161 223.170749,177.130363 235.956987,168.584638 C248.743224,160.038912 256.556918,155.766114 259.398304,155.766114 C262.23969,155.766114 265.317812,157.744261 268.632762,161.700616 C271.947713,165.65697 273.605163,169.375887 273.605163,172.857479 C273.605163,176.33907 265.002207,182.036135 247.796036,189.948844 C230.589865,197.861552 221.986908,202.52998 221.986908,203.954268 C221.986908,205.378555 230.589865,209.888731 247.796036,217.484932 C265.002207,225.081132 273.605163,230.619945 273.605163,234.101536 C273.605163,237.583128 272.026639,241.302045 268.869543,245.2584 C265.712448,249.214754 262.318621,251.192901 258.687961,251.192901 C255.057301,251.192901 247.085754,246.999229 234.773082,238.611758 C222.460409,230.224287 215.672755,226.030614 214.409917,226.030614 C213.147079,226.030614 212.515669,229.037398 212.515669,235.051057 L213.936355,262.587145 C213.936355,271.765887 213.068167,277.383825 211.331764,279.44113 C209.595362,281.498434 204.623011,282.527071 196.414562,282.527071 C188.206114,282.527071 184.101951,278.729027 184.101951,271.132827 Z" id="Asterix" fill="#242529"></path>
    </g>
</svg>