<?xml version="1.0" standalone="no"?>
<!DOCTYPE svg PUBLIC "-//W3C//DTD SVG 20010904//EN"
 "http://www.w3.org/TR/2001/REC-SVG-20010904/DTD/svg10.dtd">
<svg version="1.0" xmlns="http://www.w3.org/2000/svg"
 width="1000.000000pt" height="1000.000000pt" viewBox="0 0 1000.000000 1000.000000"
 preserveAspectRatio="xMidYMid meet">
<metadata>
Created by potrace 1.11, written by Peter Selinger 2001-2013
</metadata>
<g transform="translate(0.000000,1000.000000) scale(0.100000,-0.100000)"
fill="#000000" stroke="none">
<path d="M4470 9475 c-289 -289 -530 -525 -535 -525 -6 0 -330 86 -720 190
-390 105 -712 187 -715 183 -4 -5 -92 -325 -195 -713 -103 -388 -193 -710
-199 -716 -6 -6 -328 -96 -716 -199 -388 -103 -708 -191 -713 -195 -4 -3 78
-325 183 -715 104 -390 190 -714 190 -720 0 -5 -237 -247 -527 -537 l-528
-528 529 -529 529 -529 -12 -48 c-7 -27 -93 -350 -192 -718 -99 -368 -176
-673 -172 -676 5 -4 325 -92 713 -195 388 -103 710 -193 716 -199 6 -6 96
-328 199 -716 103 -388 191 -708 195 -713 3 -4 308 73 676 172 368 99 691 185
718 192 l48 12 529 -529 529 -529 529 529 529 529 48 -12 c27 -7 350 -93 718
-192 368 -99 673 -176 676 -172 4 5 92 325 195 713 103 388 193 710 199 716 6
6 328 96 716 199 388 103 708 191 713 195 4 3 -73 308 -172 676 -99 368 -185
691 -192 718 l-12 48 529 529 529 529 -528 528 c-290 290 -527 532 -527 537 0
6 86 330 190 720 105 390 187 712 183 715 -5 4 -325 92 -713 195 -388 103
-710 193 -716 199 -6 6 -96 328 -199 716 -103 388 -191 708 -195 713 -3 4
-325 -78 -715 -183 -390 -104 -714 -190 -720 -190 -5 0 -246 236 -535 525
-289 289 -527 525 -530 525 -3 0 -241 -236 -530 -525z m950 -170 c228 -228
412 -416 410 -419 -3 -2 -144 -41 -315 -86 -170 -45 -313 -85 -317 -88 -4 -4
-48 -163 -100 -354 -51 -192 -95 -348 -98 -348 -3 0 -48 158 -100 352 l-95
352 -315 84 c-173 46 -317 86 -320 89 -4 4 821 833 830 833 3 0 192 -187 420
-415z m-2198 -371 l558 -149 -235 -235 -234 -235 94 -350 c52 -192 95 -354 95
-360 0 -5 -118 108 -263 253 l-262 262 -319 -86 c-175 -47 -319 -84 -320 -82
-2 3 267 1009 294 1101 6 22 16 36 23 34 7 -2 263 -71 569 -153z m4148 119
c27 -92 296 -1098 294 -1101 -1 -2 -145 35 -320 82 l-319 86 -264 -263 c-180
-179 -261 -254 -258 -237 4 14 47 176 96 360 l91 335 -235 235 -235 235 563
151 c309 84 565 152 569 153 4 0 12 -16 18 -36z m-3048 -414 c168 -45 311 -85
316 -88 5 -3 65 -217 134 -475 l126 -469 -147 -548 c-80 -301 -149 -550 -152
-553 -3 -3 -187 177 -409 399 l-404 404 -127 473 -128 473 232 233 c128 127
236 232 242 232 5 0 148 -36 317 -81z m1915 -151 l232 -233 -127 -473 -127
-472 -405 -405 c-329 -329 -406 -402 -413 -388 -13 31 -289 1067 -289 1088 0
18 241 935 249 944 4 6 614 169 633 170 8 1 119 -104 247 -231z m-2975 -935
l347 -348 147 -548 c80 -301 144 -550 141 -553 -3 -3 -252 60 -553 141 l-549
146 -347 347 -347 347 86 321 86 320 316 86 c174 48 318 87 321 87 3 1 161
-155 352 -346z m4154 256 l310 -83 87 -321 86 -320 -347 -347 -347 -347 -548
-147 c-301 -80 -551 -144 -554 -141 -3 3 61 253 141 554 l147 548 347 348
c191 191 351 345 357 343 5 -2 150 -41 321 -87z m-5451 -465 l-85 -319 262
-264 c180 -180 255 -261 238 -258 -14 4 -176 47 -360 96 l-335 91 -235 -235
-235 -235 -152 568 c-83 312 -149 569 -147 571 5 5 1128 308 1132 305 2 -1
-36 -145 -83 -320z m7119 15 c2 -2 -64 -259 -147 -571 l-152 -568 -235 235
-235 234 -350 -94 c-192 -52 -354 -95 -360 -95 -5 0 108 118 253 263 l262 262
-80 297 c-44 163 -82 308 -85 321 -6 23 11 19 559 -128 312 -84 568 -154 570
-156z m-3962 -587 l118 -437 -120 -120 -120 -120 -119 120 -120 120 117 437
c64 241 119 438 122 438 3 0 58 -197 122 -438z m-624 -660 c-24 -89 -47 -162
-53 -162 -5 1 -79 20 -164 43 l-154 42 -118 440 c-65 242 -119 442 -119 445 0
3 147 -142 326 -321 l325 -325 -43 -162z m1494 362 l-118 -439 -155 -42 c-85
-23 -158 -42 -164 -43 -5 0 -29 73 -53 162 l-42 162 322 323 c177 177 323 321
325 320 1 -2 -51 -201 -115 -443z m-3657 -164 l350 -93 407 -406 c224 -223
405 -408 402 -410 -3 -3 -251 -72 -552 -152 l-547 -147 -470 126 c-259 69
-473 129 -476 134 -7 11 -169 618 -169 633 0 5 104 114 231 241 l231 231 122
-32 c66 -18 279 -74 471 -125z m6154 -74 l235 -235 -84 -315 c-46 -173 -86
-319 -89 -324 -7 -10 -916 -254 -946 -254 -11 0 -213 52 -450 115 -236 64
-477 128 -535 143 -58 14 -108 29 -112 33 -4 4 175 189 397 411 l405 405 467
126 c258 70 470 127 473 128 3 0 111 -105 239 -233z m-4944 -250 l420 -112 42
-155 c23 -85 42 -158 43 -164 0 -5 -73 -29 -163 -52 l-162 -42 -325 325 c-216
216 -317 323 -300 319 14 -3 214 -57 445 -119z m1604 -22 l149 149 12 -44 c6
-24 19 -73 30 -109 10 -36 28 -103 41 -150 12 -47 25 -88 29 -93 3 -4 93 16
199 44 105 28 195 49 198 46 3 -4 -18 -93 -46 -198 -29 -106 -49 -195 -44
-199 4 -4 80 -26 168 -49 88 -23 175 -47 194 -53 l33 -10 -148 -149 -149 -149
149 -149 148 -149 -33 -10 c-19 -6 -106 -30 -194 -53 -88 -23 -164 -45 -168
-49 -5 -4 15 -93 44 -199 28 -105 49 -194 46 -198 -3 -3 -93 18 -198 46 -106
28 -196 48 -199 44 -4 -5 -17 -46 -29 -93 -13 -47 -31 -114 -41 -150 -11 -36
-24 -85 -30 -109 l-12 -44 -149 149 -149 149 -149 -149 -149 -149 -12 44 c-6
24 -19 73 -30 109 -10 36 -28 103 -41 150 -12 47 -25 88 -29 93 -3 4 -93 -16
-199 -44 -105 -28 -195 -49 -198 -46 -3 3 18 93 46 198 28 106 48 196 44 199
-5 4 -46 17 -93 29 -47 13 -114 31 -150 41 -36 11 -85 24 -109 30 l-44 12 149
149 149 149 -149 149 -149 149 44 12 c24 6 73 19 109 30 36 10 103 28 150 41
47 12 89 25 93 29 5 4 -15 93 -44 199 -28 105 -49 194 -46 198 3 3 93 -18 198
-46 106 -28 196 -48 199 -44 4 5 17 46 29 93 13 47 31 114 41 150 11 36 24 85
30 109 l12 44 149 -149 149 -149 149 149z m1450 -180 l-326 -326 -159 43 c-87
23 -161 43 -163 45 -5 4 68 291 80 315 5 10 64 31 171 59 90 24 285 76 433
116 149 40 274 73 280 73 5 1 -137 -146 -316 -325z m-5399 -270 c71 -267 87
-317 104 -323 12 -5 171 -48 354 -96 182 -49 332 -92 332 -95 0 -3 -159 -49
-352 -101 l-353 -94 -84 -317 c-47 -175 -87 -318 -90 -318 -4 0 -193 187 -421
415 l-415 415 415 415 c228 228 418 415 421 415 3 0 43 -142 89 -316z m8110
-99 l415 -415 -415 -415 c-228 -228 -418 -415 -421 -415 -3 0 -43 142 -89 316
-71 267 -87 317 -104 323 -12 5 -171 48 -353 96 -183 49 -333 91 -333 95 0 3
159 48 352 100 l353 95 84 318 c47 174 87 317 90 317 4 0 193 -187 421 -415z
m-5525 -295 l120 -120 -120 -119 -120 -120 -432 116 c-238 64 -433 119 -433
123 0 5 785 223 860 239 3 0 59 -53 125 -119z m2740 69 c77 -21 260 -71 408
-110 147 -40 267 -75 267 -79 0 -4 -120 -39 -267 -79 -148 -39 -342 -92 -433
-116 l-165 -45 -120 120 -120 120 120 120 c105 105 122 119 145 113 14 -3 88
-23 165 -44z m-3465 -469 c234 -63 428 -116 432 -119 4 -4 -174 -188 -397
-411 l-404 -404 -473 -127 -473 -128 -234 234 -235 234 84 315 c46 173 86 319
89 324 3 4 217 65 476 134 l469 125 121 -32 c66 -18 311 -83 545 -145z m5019
52 l474 -128 83 -309 c46 -171 84 -317 84 -325 0 -8 -105 -119 -232 -247
l-233 -232 -472 127 -473 127 -405 405 c-222 222 -401 408 -397 411 4 4 95 30
202 58 148 39 895 239 895 240 0 0 213 -57 474 -127z m-4182 -278 c84 -21 153
-43 153 -49 -1 -5 -20 -79 -43 -164 l-42 -155 -420 -112 c-231 -62 -431 -116
-445 -119 -17 -4 84 103 300 320 179 179 330 324 335 322 6 -2 79 -21 162 -43z
m2703 -280 c179 -179 316 -323 305 -320 -30 8 -515 136 -703 186 -107 28 -166
49 -171 59 -12 24 -85 311 -80 315 5 4 299 84 314 85 6 1 156 -146 335 -325z
m-2102 -326 l43 -162 -322 -322 c-178 -178 -324 -322 -325 -321 -2 1 50 200
115 442 l118 440 149 41 c82 23 156 42 164 43 11 1 26 -40 58 -161z m1221 119
l155 -42 118 -439 c64 -242 116 -441 115 -443 -2 -1 -148 143 -325 320 l-321
322 42 162 c23 90 47 163 52 163 6 -1 79 -20 164 -43z m-1819 -116 c0 -4 -65
-253 -146 -552 l-145 -544 -347 -347 -347 -347 -321 87 -321 87 -86 320 -85
320 346 347 347 347 535 144 c294 80 543 145 553 146 9 0 17 -3 17 -8z m1222
-108 l117 -118 -116 -432 c-64 -238 -119 -433 -123 -433 -4 0 -59 195 -123
433 l-116 432 117 118 c64 64 119 117 122 117 3 0 58 -53 122 -117z m1539 -29
l544 -145 347 -347 346 -347 -86 -321 -86 -321 -320 -86 -321 -86 -347 347
-347 347 -145 544 c-81 299 -146 548 -146 552 0 5 4 9 9 9 4 0 253 -65 552
-146z m-4626 -349 c193 52 354 95 360 95 5 0 -108 -118 -252 -262 l-263 -263
85 -315 c46 -173 82 -316 80 -319 -5 -4 -1108 288 -1124 298 -5 3 59 261 142
573 l152 568 235 -235 235 -234 350 94z m6904 -205 c82 -305 147 -557 145
-559 -5 -6 -1128 -308 -1132 -305 -2 1 35 145 82 320 l86 319 -263 264 c-179
180 -254 261 -237 258 14 -4 176 -47 360 -96 l335 -91 235 235 c129 130 236
230 238 223 1 -7 70 -263 151 -568z m-4189 -255 c78 -291 142 -539 142 -550 0
-18 -241 -934 -249 -944 -4 -6 -615 -170 -633 -171 -8 0 -119 105 -247 233
l-232 232 127 472 127 473 405 405 c256 256 407 400 411 392 4 -6 71 -250 149
-542z m1591 -727 l127 -473 -231 -232 c-128 -128 -239 -233 -247 -233 -8 0
-154 38 -325 84 l-309 83 -127 474 -127 473 144 541 c80 297 147 547 150 555
3 9 143 -124 411 -392 l407 -407 127 -473z m-2935 -179 l-96 -354 235 -235
235 -235 -568 -152 c-312 -83 -569 -149 -571 -147 -6 6 -308 1134 -304 1134 2
0 147 -38 321 -85 l317 -85 259 260 c143 142 262 258 263 256 2 -2 -39 -163
-91 -357z m3934 -74 c173 46 316 82 318 80 5 -5 -287 -1108 -297 -1124 -3 -5
-261 59 -573 142 l-568 152 235 235 234 235 -94 350 c-52 193 -95 354 -95 360
0 5 118 -108 263 -253 l262 -262 315 85z m-2240 -327 l95 -353 318 -84 c174
-47 317 -87 317 -90 0 -4 -187 -193 -415 -421 l-415 -415 -415 415 c-228 228
-415 417 -415 421 0 3 143 43 318 90 l317 84 95 353 c52 193 97 352 100 352 3
0 48 -159 100 -352z"/>
<path d="M4835 5170 l-170 -170 170 -170 169 -169 33 32 33 32 -25 3 c-14 2
-23 8 -20 13 4 5 -9 10 -27 10 -84 4 -106 12 -87 35 9 11 8 14 -7 14 -13 0
-15 3 -7 11 9 9 16 8 27 -3 8 -9 12 -19 8 -23 -4 -5 -1 -5 6 -1 7 4 10 12 6
17 -3 6 2 17 12 24 13 10 15 14 5 15 -10 0 -11 3 -2 14 11 13 58 31 74 28 4
-1 7 3 7 9 0 6 -9 8 -22 3 -20 -6 -21 -5 -6 10 9 9 22 16 28 16 6 0 9 4 5 9
-3 5 -1 12 5 16 5 3 10 1 10 -5 0 -7 5 -6 14 2 12 11 11 14 -8 20 l-21 6 21 1
c12 1 27 -6 34 -14 14 -17 30 -20 30 -4 0 5 -4 8 -9 5 -5 -3 -11 4 -14 15 -6
24 13 49 37 49 20 0 30 -17 14 -23 -10 -4 -10 -6 0 -6 6 -1 22 9 33 20 17 17
19 23 8 30 -11 7 -10 9 4 9 19 0 23 15 7 25 -12 7 -4 25 11 25 6 0 7 -4 4 -10
-3 -5 2 -10 11 -10 22 0 16 7 -126 152 l-106 108 -169 -170z m18 -147 c4 -3 3
-11 -4 -19 -10 -12 -14 -12 -25 3 -23 31 -11 37 29 16z m257 -3 c0 -5 -2 -10
-4 -10 -3 0 -8 5 -11 10 -3 6 -1 10 4 10 6 0 11 -4 11 -10z m-370 -40 c0 -5
-5 -10 -11 -10 -5 0 -7 5 -4 10 3 6 8 10 11 10 2 0 4 -4 4 -10z m105 -60 c3
-5 -1 -10 -10 -10 -9 0 -13 5 -10 10 3 6 8 10 10 10 2 0 7 -4 10 -10z"/>
<path d="M5250 5045 c-6 -8 -9 -23 -5 -35 4 -12 2 -20 -5 -20 -6 0 -8 5 -5 10
3 6 1 10 -5 10 -12 0 -2 -52 13 -61 5 -4 1 -19 -9 -35 -18 -29 -18 -29 1 -14
11 8 39 34 64 58 l43 42 -33 30 c-39 34 -42 35 -59 15z"/>
<path d="M5090 4916 c0 -2 7 -7 16 -10 8 -3 12 -2 9 4 -6 10 -25 14 -25 6z"/>
<path d="M5121 4854 c0 -11 3 -14 6 -6 3 7 2 16 -1 19 -3 4 -6 -2 -5 -13z"/>
<path d="M5048 4853 c7 -3 16 -2 19 1 4 3 -2 6 -13 5 -11 0 -14 -3 -6 -6z"/>
<path d="M5095 4800 c-3 -5 1 -10 9 -10 9 0 16 5 16 10 0 6 -4 10 -9 10 -6 0
-13 -4 -16 -10z"/>
<path d="M4955 4780 c-3 -5 -1 -10 4 -10 6 0 11 5 11 10 0 6 -2 10 -4 10 -3 0
-8 -4 -11 -10z"/>
<path d="M5036 4771 c-3 -5 10 -11 30 -13 19 -2 38 0 41 5 3 6 1 7 -5 3 -7 -4
-12 -2 -12 3 0 13 -47 15 -54 2z"/>
</g>
</svg>
